%TF.GenerationSoftware,KiCad,Pcbnew,(6.0.5)*%
%TF.CreationDate,2024-08-03T11:57:57+02:00*%
%TF.ProjectId,gl823k_card_reader,676c3832-336b-45f6-9361-72645f726561,rev?*%
%TF.SameCoordinates,Original*%
%TF.FileFunction,Copper,L2,Bot*%
%TF.FilePolarity,Positive*%
%FSLAX46Y46*%
G04 Gerber Fmt 4.6, Leading zero omitted, Abs format (unit mm)*
G04 Created by KiCad (PCBNEW (6.0.5)) date 2024-08-03 11:57:57*
%MOMM*%
%LPD*%
G01*
G04 APERTURE LIST*
%TA.AperFunction,ComponentPad*%
%ADD10O,1.600000X1.000000*%
%TD*%
%TA.AperFunction,ComponentPad*%
%ADD11O,2.100000X1.000000*%
%TD*%
%TA.AperFunction,ComponentPad*%
%ADD12C,6.400000*%
%TD*%
%TA.AperFunction,ViaPad*%
%ADD13C,0.800000*%
%TD*%
G04 APERTURE END LIST*
D10*
%TO.P,J1,S1,SHIELD*%
%TO.N,GND*%
X123950000Y-94820000D03*
D11*
X128130000Y-86180000D03*
X128130000Y-94820000D03*
D10*
X123950000Y-86180000D03*
%TD*%
D12*
%TO.P,H4,1,1*%
%TO.N,GND*%
X172000000Y-114000000D03*
%TD*%
%TO.P,H3,1,1*%
%TO.N,GND*%
X125000000Y-67000000D03*
%TD*%
%TO.P,H2,1,1*%
%TO.N,GND*%
X172000000Y-67000000D03*
%TD*%
%TO.P,H1,1,1*%
%TO.N,GND*%
X125000000Y-114000000D03*
%TD*%
D13*
%TO.N,GND*%
X135500000Y-91250000D03*
X147250000Y-89000000D03*
X142500000Y-94250000D03*
X135750000Y-85000000D03*
X138500000Y-98000000D03*
X147000000Y-95500000D03*
%TD*%
%TA.AperFunction,Conductor*%
%TO.N,GND*%
G36*
X171987496Y-63252921D02*
G01*
X171987828Y-63252987D01*
X171987829Y-63252987D01*
X172000000Y-63255408D01*
X172012171Y-63252987D01*
X172024582Y-63252987D01*
X172024582Y-63253026D01*
X172035310Y-63252235D01*
X172236423Y-63262115D01*
X172361337Y-63268251D01*
X172373633Y-63269462D01*
X172725375Y-63321639D01*
X172737481Y-63324046D01*
X173082414Y-63410447D01*
X173094246Y-63414036D01*
X173429044Y-63533829D01*
X173440468Y-63538561D01*
X173579684Y-63604405D01*
X173761912Y-63690592D01*
X173772813Y-63696419D01*
X174077805Y-63879225D01*
X174088086Y-63886095D01*
X174373691Y-64097913D01*
X174383230Y-64105740D01*
X174646716Y-64344551D01*
X174655449Y-64353284D01*
X174894260Y-64616770D01*
X174902087Y-64626309D01*
X175001246Y-64760010D01*
X175113905Y-64911914D01*
X175120775Y-64922195D01*
X175303581Y-65227187D01*
X175309410Y-65238092D01*
X175461439Y-65559532D01*
X175466171Y-65570956D01*
X175585964Y-65905754D01*
X175589553Y-65917584D01*
X175675954Y-66262519D01*
X175678363Y-66274634D01*
X175730537Y-66626362D01*
X175731749Y-66638668D01*
X175747765Y-66964690D01*
X175746974Y-66975418D01*
X175747013Y-66975418D01*
X175747013Y-66987829D01*
X175744592Y-67000000D01*
X175747013Y-67012171D01*
X175747013Y-67012172D01*
X175747079Y-67012504D01*
X175749500Y-67037085D01*
X175749500Y-113962915D01*
X175747079Y-113987496D01*
X175744592Y-114000000D01*
X175747013Y-114012171D01*
X175747013Y-114024582D01*
X175746974Y-114024582D01*
X175747765Y-114035310D01*
X175731749Y-114361332D01*
X175730537Y-114373638D01*
X175678363Y-114725366D01*
X175675954Y-114737481D01*
X175664837Y-114781862D01*
X175589553Y-115082414D01*
X175585964Y-115094246D01*
X175466171Y-115429044D01*
X175461439Y-115440468D01*
X175309410Y-115761908D01*
X175303581Y-115772813D01*
X175120775Y-116077805D01*
X175113905Y-116088086D01*
X174902087Y-116373691D01*
X174894260Y-116383230D01*
X174655454Y-116646711D01*
X174646716Y-116655449D01*
X174383230Y-116894260D01*
X174373691Y-116902087D01*
X174164636Y-117057132D01*
X174088086Y-117113905D01*
X174077805Y-117120775D01*
X173772813Y-117303581D01*
X173761912Y-117309408D01*
X173617482Y-117377718D01*
X173440468Y-117461439D01*
X173429044Y-117466171D01*
X173094246Y-117585964D01*
X173082416Y-117589553D01*
X172737481Y-117675954D01*
X172725375Y-117678361D01*
X172373633Y-117730538D01*
X172361337Y-117731749D01*
X172236423Y-117737885D01*
X172035310Y-117747765D01*
X172024582Y-117746974D01*
X172024582Y-117747013D01*
X172012171Y-117747013D01*
X172000000Y-117744592D01*
X171987829Y-117747013D01*
X171987828Y-117747013D01*
X171987496Y-117747079D01*
X171962915Y-117749500D01*
X125037085Y-117749500D01*
X125012504Y-117747079D01*
X125012172Y-117747013D01*
X125012171Y-117747013D01*
X125000000Y-117744592D01*
X124987829Y-117747013D01*
X124975418Y-117747013D01*
X124975418Y-117746974D01*
X124964690Y-117747765D01*
X124763577Y-117737885D01*
X124638663Y-117731749D01*
X124626367Y-117730538D01*
X124274625Y-117678361D01*
X124262519Y-117675954D01*
X123917584Y-117589553D01*
X123905754Y-117585964D01*
X123570956Y-117466171D01*
X123559532Y-117461439D01*
X123382518Y-117377718D01*
X123238088Y-117309408D01*
X123227187Y-117303581D01*
X122922195Y-117120775D01*
X122911914Y-117113905D01*
X122835364Y-117057132D01*
X122626309Y-116902087D01*
X122616770Y-116894260D01*
X122353284Y-116655449D01*
X122344546Y-116646711D01*
X122105740Y-116383230D01*
X122097913Y-116373691D01*
X121886095Y-116088086D01*
X121879225Y-116077805D01*
X121696419Y-115772813D01*
X121690590Y-115761908D01*
X121538561Y-115440468D01*
X121533829Y-115429044D01*
X121414036Y-115094246D01*
X121410447Y-115082414D01*
X121335163Y-114781862D01*
X121324046Y-114737481D01*
X121321637Y-114725366D01*
X121269463Y-114373638D01*
X121268251Y-114361332D01*
X121252235Y-114035310D01*
X121253026Y-114024582D01*
X121252987Y-114024582D01*
X121252987Y-114012171D01*
X121255408Y-114000000D01*
X121252921Y-113987496D01*
X121250500Y-113962915D01*
X121250500Y-101950559D01*
X151715689Y-101950559D01*
X151716046Y-101957376D01*
X151716046Y-101957380D01*
X151720871Y-102049441D01*
X151725701Y-102141605D01*
X151727512Y-102148178D01*
X151727512Y-102148181D01*
X151774691Y-102319463D01*
X151776504Y-102326045D01*
X151865728Y-102495273D01*
X151870133Y-102500486D01*
X151870136Y-102500490D01*
X151962326Y-102609582D01*
X151989209Y-102641393D01*
X152141188Y-102757589D01*
X152147368Y-102760471D01*
X152147370Y-102760472D01*
X152308395Y-102835560D01*
X152308398Y-102835561D01*
X152314572Y-102838440D01*
X152321217Y-102839925D01*
X152321222Y-102839927D01*
X152496230Y-102879045D01*
X152496233Y-102879045D01*
X152501273Y-102880172D01*
X152507139Y-102880500D01*
X152647793Y-102880500D01*
X152790189Y-102865031D01*
X152881527Y-102834292D01*
X152965035Y-102806189D01*
X152965040Y-102806187D01*
X152971505Y-102804011D01*
X153135489Y-102705480D01*
X153274488Y-102574035D01*
X153382020Y-102415807D01*
X153453065Y-102238180D01*
X153454179Y-102231452D01*
X153454180Y-102231448D01*
X153483196Y-102056178D01*
X153483196Y-102056175D01*
X153484311Y-102049441D01*
X153479487Y-101957380D01*
X153474656Y-101865208D01*
X153474299Y-101858395D01*
X153445953Y-101755483D01*
X153425309Y-101680537D01*
X153423496Y-101673955D01*
X153334272Y-101504727D01*
X153329867Y-101499514D01*
X153329864Y-101499510D01*
X153215197Y-101363821D01*
X153210791Y-101358607D01*
X153058812Y-101242411D01*
X153052632Y-101239529D01*
X153052630Y-101239528D01*
X152891605Y-101164440D01*
X152891602Y-101164439D01*
X152885428Y-101161560D01*
X152878783Y-101160075D01*
X152878778Y-101160073D01*
X152703770Y-101120955D01*
X152703767Y-101120955D01*
X152698727Y-101119828D01*
X152692861Y-101119500D01*
X152552207Y-101119500D01*
X152409811Y-101134969D01*
X152330798Y-101161560D01*
X152234965Y-101193811D01*
X152234960Y-101193813D01*
X152228495Y-101195989D01*
X152064511Y-101294520D01*
X151925512Y-101425965D01*
X151817980Y-101584193D01*
X151746935Y-101761820D01*
X151745821Y-101768548D01*
X151745820Y-101768552D01*
X151729819Y-101865208D01*
X151715689Y-101950559D01*
X121250500Y-101950559D01*
X121250500Y-93348514D01*
X126940594Y-93348514D01*
X126950993Y-93513805D01*
X126953442Y-93521341D01*
X126953442Y-93521343D01*
X126979437Y-93601345D01*
X127002172Y-93671317D01*
X127090914Y-93811152D01*
X127211644Y-93924526D01*
X127356776Y-94004313D01*
X127364451Y-94006284D01*
X127364452Y-94006284D01*
X127509513Y-94043529D01*
X127509516Y-94043529D01*
X127517191Y-94045500D01*
X127641242Y-94045500D01*
X127688714Y-94039503D01*
X127756447Y-94030947D01*
X127756450Y-94030946D01*
X127764312Y-94029953D01*
X127771679Y-94027036D01*
X127771680Y-94027036D01*
X127910930Y-93971903D01*
X127910933Y-93971902D01*
X127918299Y-93968985D01*
X128052287Y-93871637D01*
X128157856Y-93744026D01*
X128228373Y-93594171D01*
X128243703Y-93513805D01*
X128257921Y-93439272D01*
X128257921Y-93439270D01*
X128259406Y-93431486D01*
X128249007Y-93266195D01*
X128225426Y-93193620D01*
X128200279Y-93116225D01*
X128200278Y-93116222D01*
X128197828Y-93108683D01*
X128109086Y-92968848D01*
X127988356Y-92855474D01*
X127843224Y-92775687D01*
X127835549Y-92773716D01*
X127835548Y-92773716D01*
X127690487Y-92736471D01*
X127690484Y-92736471D01*
X127682809Y-92734500D01*
X127558758Y-92734500D01*
X127511286Y-92740497D01*
X127443553Y-92749053D01*
X127443550Y-92749054D01*
X127435688Y-92750047D01*
X127428321Y-92752964D01*
X127428320Y-92752964D01*
X127289070Y-92808097D01*
X127289067Y-92808098D01*
X127281701Y-92811015D01*
X127147713Y-92908363D01*
X127042144Y-93035974D01*
X126971627Y-93185829D01*
X126970141Y-93193620D01*
X126954788Y-93274107D01*
X126940594Y-93348514D01*
X121250500Y-93348514D01*
X121250500Y-87568514D01*
X126940594Y-87568514D01*
X126950993Y-87733805D01*
X126953442Y-87741341D01*
X126953442Y-87741343D01*
X126979437Y-87821345D01*
X127002172Y-87891317D01*
X127090914Y-88031152D01*
X127211644Y-88144526D01*
X127356776Y-88224313D01*
X127364451Y-88226284D01*
X127364452Y-88226284D01*
X127509513Y-88263529D01*
X127509516Y-88263529D01*
X127517191Y-88265500D01*
X127641242Y-88265500D01*
X127688714Y-88259503D01*
X127756447Y-88250947D01*
X127756450Y-88250946D01*
X127764312Y-88249953D01*
X127771679Y-88247036D01*
X127771680Y-88247036D01*
X127910930Y-88191903D01*
X127910933Y-88191902D01*
X127918299Y-88188985D01*
X128052287Y-88091637D01*
X128157856Y-87964026D01*
X128228373Y-87814171D01*
X128243703Y-87733805D01*
X128257921Y-87659272D01*
X128257921Y-87659270D01*
X128259406Y-87651486D01*
X128249007Y-87486195D01*
X128225426Y-87413620D01*
X128200279Y-87336225D01*
X128200278Y-87336222D01*
X128197828Y-87328683D01*
X128109086Y-87188848D01*
X127988356Y-87075474D01*
X127843224Y-86995687D01*
X127835549Y-86993716D01*
X127835548Y-86993716D01*
X127690487Y-86956471D01*
X127690484Y-86956471D01*
X127682809Y-86954500D01*
X127558758Y-86954500D01*
X127511286Y-86960497D01*
X127443553Y-86969053D01*
X127443550Y-86969054D01*
X127435688Y-86970047D01*
X127428321Y-86972964D01*
X127428320Y-86972964D01*
X127289070Y-87028097D01*
X127289067Y-87028098D01*
X127281701Y-87031015D01*
X127147713Y-87128363D01*
X127042144Y-87255974D01*
X126971627Y-87405829D01*
X126970141Y-87413620D01*
X126954788Y-87494107D01*
X126940594Y-87568514D01*
X121250500Y-87568514D01*
X121250500Y-80944524D01*
X151465714Y-80944524D01*
X151475688Y-81160013D01*
X151526229Y-81369729D01*
X151528709Y-81375184D01*
X151528711Y-81375189D01*
X151570491Y-81467078D01*
X151615516Y-81566104D01*
X151740325Y-81742052D01*
X151896153Y-81891225D01*
X151901192Y-81894479D01*
X151901195Y-81894481D01*
X151990201Y-81951951D01*
X152077378Y-82008240D01*
X152277460Y-82088876D01*
X152412022Y-82115154D01*
X152484735Y-82129354D01*
X152484738Y-82129354D01*
X152489181Y-82130222D01*
X152494865Y-82130500D01*
X152653896Y-82130500D01*
X152814745Y-82115154D01*
X152911961Y-82086634D01*
X153015988Y-82056116D01*
X153015990Y-82056115D01*
X153021741Y-82054428D01*
X153027075Y-82051681D01*
X153208189Y-81958401D01*
X153208192Y-81958399D01*
X153213520Y-81955655D01*
X153300824Y-81887077D01*
X153378444Y-81826106D01*
X153378448Y-81826102D01*
X153383161Y-81822400D01*
X153524544Y-81659471D01*
X153632567Y-81472746D01*
X153703332Y-81268963D01*
X153704193Y-81263026D01*
X153733425Y-81061416D01*
X153733425Y-81061413D01*
X153734286Y-81055476D01*
X153724312Y-80839987D01*
X153673771Y-80630271D01*
X153671291Y-80624816D01*
X153671289Y-80624811D01*
X153586963Y-80439349D01*
X153584484Y-80433896D01*
X153459675Y-80257948D01*
X153303847Y-80108775D01*
X153298808Y-80105521D01*
X153298805Y-80105519D01*
X153127666Y-79995017D01*
X153122622Y-79991760D01*
X152922540Y-79911124D01*
X152785059Y-79884276D01*
X152715265Y-79870646D01*
X152715262Y-79870646D01*
X152710819Y-79869778D01*
X152705135Y-79869500D01*
X152546104Y-79869500D01*
X152385255Y-79884846D01*
X152379501Y-79886534D01*
X152184012Y-79943884D01*
X152184010Y-79943885D01*
X152178259Y-79945572D01*
X152172927Y-79948318D01*
X152172925Y-79948319D01*
X151991811Y-80041599D01*
X151991808Y-80041601D01*
X151986480Y-80044345D01*
X151981765Y-80048049D01*
X151821556Y-80173894D01*
X151821552Y-80173898D01*
X151816839Y-80177600D01*
X151675456Y-80340529D01*
X151567433Y-80527254D01*
X151496668Y-80731037D01*
X151495807Y-80736972D01*
X151495807Y-80736974D01*
X151481717Y-80834156D01*
X151465714Y-80944524D01*
X121250500Y-80944524D01*
X121250500Y-67037085D01*
X121252921Y-67012504D01*
X121252987Y-67012172D01*
X121252987Y-67012171D01*
X121255408Y-67000000D01*
X121252987Y-66987829D01*
X121252987Y-66975418D01*
X121253026Y-66975418D01*
X121252235Y-66964690D01*
X121268251Y-66638668D01*
X121269463Y-66626362D01*
X121321637Y-66274634D01*
X121324046Y-66262519D01*
X121410447Y-65917584D01*
X121414036Y-65905754D01*
X121533829Y-65570956D01*
X121538561Y-65559532D01*
X121690590Y-65238092D01*
X121696419Y-65227187D01*
X121879225Y-64922195D01*
X121886095Y-64911914D01*
X121998754Y-64760010D01*
X122097913Y-64626309D01*
X122105740Y-64616770D01*
X122344551Y-64353284D01*
X122353284Y-64344551D01*
X122616770Y-64105740D01*
X122626309Y-64097913D01*
X122911914Y-63886095D01*
X122922195Y-63879225D01*
X123227187Y-63696419D01*
X123238088Y-63690592D01*
X123420316Y-63604405D01*
X123559532Y-63538561D01*
X123570956Y-63533829D01*
X123905754Y-63414036D01*
X123917586Y-63410447D01*
X124262519Y-63324046D01*
X124274625Y-63321639D01*
X124626367Y-63269462D01*
X124638663Y-63268251D01*
X124763577Y-63262115D01*
X124964690Y-63252235D01*
X124975418Y-63253026D01*
X124975418Y-63252987D01*
X124987829Y-63252987D01*
X125000000Y-63255408D01*
X125012171Y-63252987D01*
X125012172Y-63252987D01*
X125012504Y-63252921D01*
X125037085Y-63250500D01*
X171962915Y-63250500D01*
X171987496Y-63252921D01*
G37*
%TD.AperFunction*%
%TD*%
M02*
