%TF.GenerationSoftware,KiCad,Pcbnew,(6.0.5)*%
%TF.CreationDate,2024-08-03T11:57:57+02:00*%
%TF.ProjectId,gl823k_card_reader,676c3832-336b-45f6-9361-72645f726561,rev?*%
%TF.SameCoordinates,Original*%
%TF.FileFunction,Soldermask,Top*%
%TF.FilePolarity,Negative*%
%FSLAX46Y46*%
G04 Gerber Fmt 4.6, Leading zero omitted, Abs format (unit mm)*
G04 Created by KiCad (PCBNEW (6.0.5)) date 2024-08-03 11:57:57*
%MOMM*%
%LPD*%
G01*
G04 APERTURE LIST*
G04 Aperture macros list*
%AMRoundRect*
0 Rectangle with rounded corners*
0 $1 Rounding radius*
0 $2 $3 $4 $5 $6 $7 $8 $9 X,Y pos of 4 corners*
0 Add a 4 corners polygon primitive as box body*
4,1,4,$2,$3,$4,$5,$6,$7,$8,$9,$2,$3,0*
0 Add four circle primitives for the rounded corners*
1,1,$1+$1,$2,$3*
1,1,$1+$1,$4,$5*
1,1,$1+$1,$6,$7*
1,1,$1+$1,$8,$9*
0 Add four rect primitives between the rounded corners*
20,1,$1+$1,$2,$3,$4,$5,0*
20,1,$1+$1,$4,$5,$6,$7,0*
20,1,$1+$1,$6,$7,$8,$9,0*
20,1,$1+$1,$8,$9,$2,$3,0*%
G04 Aperture macros list end*
%ADD10C,0.650000*%
%ADD11R,1.450000X0.600000*%
%ADD12R,1.450000X0.300000*%
%ADD13O,1.600000X1.000000*%
%ADD14O,2.100000X1.000000*%
%ADD15RoundRect,0.250000X-0.262500X-0.450000X0.262500X-0.450000X0.262500X0.450000X-0.262500X0.450000X0*%
%ADD16C,6.400000*%
%ADD17RoundRect,0.243750X-0.243750X-0.456250X0.243750X-0.456250X0.243750X0.456250X-0.243750X0.456250X0*%
%ADD18C,1.100000*%
%ADD19C,1.600000*%
%ADD20R,1.500000X1.000000*%
%ADD21R,1.500000X0.700000*%
%ADD22R,2.800000X1.500000*%
%ADD23RoundRect,0.243750X0.243750X0.456250X-0.243750X0.456250X-0.243750X-0.456250X0.243750X-0.456250X0*%
%ADD24RoundRect,0.250000X0.650000X-0.325000X0.650000X0.325000X-0.650000X0.325000X-0.650000X-0.325000X0*%
%ADD25R,1.200000X0.400000*%
%ADD26RoundRect,0.250000X-0.475000X0.250000X-0.475000X-0.250000X0.475000X-0.250000X0.475000X0.250000X0*%
%ADD27RoundRect,0.250000X-0.650000X0.325000X-0.650000X-0.325000X0.650000X-0.325000X0.650000X0.325000X0*%
G04 APERTURE END LIST*
D10*
%TO.C,J1*%
X127600000Y-93390000D03*
X127600000Y-87610000D03*
D11*
X129045000Y-87250000D03*
X129045000Y-88050000D03*
D12*
X129045000Y-89250000D03*
X129045000Y-90250000D03*
X129045000Y-90750000D03*
X129045000Y-91750000D03*
D11*
X129045000Y-92950000D03*
X129045000Y-93750000D03*
X129045000Y-93750000D03*
X129045000Y-92950000D03*
D12*
X129045000Y-92250000D03*
X129045000Y-91250000D03*
X129045000Y-89750000D03*
X129045000Y-88750000D03*
D11*
X129045000Y-88050000D03*
X129045000Y-87250000D03*
D13*
X123950000Y-94820000D03*
D14*
X128130000Y-86180000D03*
X128130000Y-94820000D03*
D13*
X123950000Y-86180000D03*
%TD*%
D15*
%TO.C,R4*%
X144087500Y-102750000D03*
X145912500Y-102750000D03*
%TD*%
%TO.C,R2*%
X131087500Y-92250000D03*
X132912500Y-92250000D03*
%TD*%
D16*
%TO.C,H4*%
X172000000Y-114000000D03*
%TD*%
D17*
%TO.C,D1*%
X129812500Y-98250000D03*
X131687500Y-98250000D03*
%TD*%
D18*
%TO.C,J2*%
X152600000Y-102000000D03*
D19*
X152600000Y-81000000D03*
D20*
X149800000Y-83625000D03*
X149800000Y-86125000D03*
X149800000Y-88625000D03*
X149800000Y-91125000D03*
X149800000Y-93625000D03*
X149800000Y-96125000D03*
X149800000Y-98555000D03*
X149800000Y-100255000D03*
X149800000Y-81125000D03*
D21*
X149800000Y-101555000D03*
X149800000Y-102755000D03*
D22*
X151600000Y-104150000D03*
X173100000Y-104150000D03*
X173100000Y-76850000D03*
X151600000Y-79050000D03*
%TD*%
D16*
%TO.C,H3*%
X125000000Y-67000000D03*
%TD*%
%TO.C,H2*%
X172000000Y-67000000D03*
%TD*%
D23*
%TO.C,D2*%
X145937500Y-105500000D03*
X144062500Y-105500000D03*
%TD*%
D16*
%TO.C,H1*%
X125000000Y-114000000D03*
%TD*%
D24*
%TO.C,C3*%
X135750000Y-89475000D03*
X135750000Y-86525000D03*
%TD*%
D15*
%TO.C,R1*%
X131087500Y-89250000D03*
X132912500Y-89250000D03*
%TD*%
D24*
%TO.C,C1*%
X131500000Y-87225000D03*
X131500000Y-84275000D03*
%TD*%
D25*
%TO.C,IC1*%
X143350000Y-92722500D03*
X143350000Y-92087500D03*
X143350000Y-91452500D03*
X143350000Y-90817500D03*
X143350000Y-90182500D03*
X143350000Y-89547500D03*
X143350000Y-88912500D03*
X143350000Y-88277500D03*
X138150000Y-88277500D03*
X138150000Y-88912500D03*
X138150000Y-89547500D03*
X138150000Y-90182500D03*
X138150000Y-90817500D03*
X138150000Y-91452500D03*
X138150000Y-92087500D03*
X138150000Y-92722500D03*
%TD*%
D26*
%TO.C,C4*%
X138500000Y-94550000D03*
X138500000Y-96450000D03*
%TD*%
D27*
%TO.C,C2*%
X146250000Y-90775000D03*
X146250000Y-93725000D03*
%TD*%
D15*
%TO.C,R3*%
X125587500Y-98250000D03*
X127412500Y-98250000D03*
%TD*%
M02*
